<?xml version="1.0" encoding="UTF-8" standalone="no"?>
<!-- Created with Inkscape (http://www.inkscape.org/) -->

<svg
   xmlns:dc="http://purl.org/dc/elements/1.1/"
   xmlns:cc="http://creativecommons.org/ns#"
   xmlns:rdf="http://www.w3.org/1999/02/22-rdf-syntax-ns#"
   xmlns:svg="http://www.w3.org/2000/svg"
   xmlns="http://www.w3.org/2000/svg"
   xmlns:sodipodi="http://sodipodi.sourceforge.net/DTD/sodipodi-0.dtd"
   xmlns:inkscape="http://www.inkscape.org/namespaces/inkscape"
   width="16"
   height="16"
   viewBox="0 0 16 16.000001"
   version="1.1"
   id="svg8"
   inkscape:version="0.92.3 (2405546, 2018-03-11)"
   sodipodi:docname="favicon.svg">
  <defs
     id="defs2" />
  <sodipodi:namedview
     id="base"
     pagecolor="#ffffff"
     bordercolor="#666666"
     borderopacity="1.0"
     inkscape:pageopacity="0.0"
     inkscape:pageshadow="2"
     inkscape:zoom="15.839192"
     inkscape:cx="-4.6677746"
     inkscape:cy="11.415002"
     inkscape:document-units="px"
     inkscape:current-layer="layer1"
     showgrid="false"
     inkscape:window-width="1366"
     inkscape:window-height="705"
     inkscape:window-x="-8"
     inkscape:window-y="-8"
     inkscape:window-maximized="1"
     units="px" />
  <metadata
     id="metadata5">
    <rdf:RDF>
      <cc:Work
         rdf:about="">
        <dc:format>image/svg+xml</dc:format>
        <dc:type
           rdf:resource="http://purl.org/dc/dcmitype/StillImage" />
        <dc:title />
      </cc:Work>
    </rdf:RDF>
  </metadata>
  <g
     inkscape:label="Layer 1"
     inkscape:groupmode="layer"
     id="layer1"
     transform="translate(0,-1106.5196)">
    <rect
       style="opacity:1;fill:#3468ff;fill-opacity:1;stroke:none;stroke-width:9.32690239;stroke-miterlimit:4;stroke-dasharray:none;stroke-opacity:1"
       id="rect825-6-2"
       width="2.8660104"
       height="2.6574411"
       x="11.390175"
       y="1112.069" />
    <rect
       style="opacity:1;fill:#1aff1a;fill-opacity:1;stroke:none;stroke-width:8.89984322;stroke-miterlimit:4;stroke-dasharray:none;stroke-opacity:1"
       id="rect825-6"
       width="2.7397413"
       height="2.531172"
       x="9.3246088"
       y="1114.3678" />
    <rect
       style="opacity:1;fill:#ff1a1a;fill-opacity:1;stroke:none;stroke-width:18.87950516;stroke-miterlimit:4;stroke-dasharray:none;stroke-opacity:1"
       id="rect825"
       width="5.6754971"
       height="5.4984951"
       x="1.5341054"
       y="1111.7477" />
    <path
       inkscape:connector-curvature="0"
       id="path837"
       style="font-style:normal;font-variant:normal;font-weight:normal;font-stretch:normal;font-size:medium;line-height:1.25;font-family:FontAwesome;-inkscape-font-specification:FontAwesome;letter-spacing:0px;word-spacing:0px;fill:#1a1a1a;fill-opacity:1;stroke:none;stroke-width:0.37333333"
       d="m 6.9333333,1115.053 c 0,0.15 -0.116666,0.2666 -0.266666,0.2666 H 5.066666 v 1.6 c 0,0.15 -0.116666,0.2667 -0.266666,0.2667 H 3.733333 c -0.15,0 -0.266666,-0.1167 -0.266666,-0.2667 v -1.6 h -1.6 c -0.15,0 -0.266667,-0.1166 -0.266667,-0.2666 v -1.0667 c 0,-0.15 0.116667,-0.2667 0.266667,-0.2667 h 1.6 v -1.6 c 0,-0.15 0.116666,-0.2666 0.266666,-0.2666 H 4.8 c 0.15,0 0.266666,0.1166 0.266666,0.2666 v 1.6 h 1.6000013 c 0.15,0 0.266666,0.1167 0.266666,0.2667 z m 4.7999997,0.5333 c 0,0.5917 -0.475,1.0667 -1.066667,1.0667 -0.591666,0 -1.0666657,-0.475 -1.0666657,-1.0667 0,-0.5917 0.4749997,-1.0667 1.0666657,-1.0667 0.591667,0 1.066667,0.475 1.066667,1.0667 z m 2.133334,-2.1333 c 0,0.5916 -0.475,1.0666 -1.066667,1.0666 -0.591667,0 -1.066667,-0.475 -1.066667,-1.0666 0,-0.5917 0.475,-1.0667 1.066667,-1.0667 0.591667,0 1.066667,0.475 1.066667,1.0667 z M 16,1114.5196 c 0,-2.3583 -1.908333,-4 -4.266667,-4 H 4.266666 c -2.358333,0 -4.266665935,1.6417 -4.266665935,4 0,2.3584 1.908332935,4 4.266665935,4 1.083334,0 2.0666673,-0.1417 2.8166673,-0.8 h 1.833333 c 0.750001,0.6583 1.7333337,0.8 2.8166667,0.8 2.358334,0 4.266667,-1.6416 4.266667,-4 z"
       sodipodi:nodetypes="sscsssscsssscsssscssssssssssssssssssccss" />
  </g>
</svg>
